<svg xmlns="http://www.w3.org/2000/svg" xmlns:xlink="http://www.w3.org/1999/xlink" width="399" height="48" viewBox="0 0 399 48">
  <defs>
    <clipPath id="clip-path">
      <rect id="Rectangle_3" data-name="Rectangle 3" width="399" height="48" rx="24" transform="translate(15 27)" fill="#f2f5f6"/>
    </clipPath>
    <linearGradient id="linear-gradient" y1="0.5" x2="1" y2="0.5" gradientUnits="objectBoundingBox">
      <stop offset="0" stop-color="#004122"/>
      <stop offset="1" stop-color="#95c11f"/>
    </linearGradient>
  </defs>
  <g id="Mask_Group_4" data-name="Mask Group 4" transform="translate(-15 -27)" clip-path="url(#clip-path)">
    <g id="Layer_1" data-name="Layer 1" transform="translate(189.6 27.002)">
      <g id="Group_370" data-name="Group 370">
        <g id="Group_368" data-name="Group 368">
          <path id="Path_165" data-name="Path 165" d="M13.491,46.836a5.7,5.7,0,0,1-5.059-3.673L1.379,21.458a5.69,5.69,0,0,1,1.934-5.944L21.773,2.1a5.672,5.672,0,0,1,6.251,0l18.46,13.409a5.672,5.672,0,0,1,1.934,5.944L41.365,43.156a5.682,5.682,0,0,1-5.059,3.673H13.491Z" fill="url(#linear-gradient)"/>
          <path id="Path_166" data-name="Path 166" d="M21.091,1.162,2.631,14.578a6.817,6.817,0,0,0-2.353,7.24L7.33,43.524A6.812,6.812,0,0,0,13.491,48H36.313a6.794,6.794,0,0,0,6.153-4.475L49.52,21.818a6.8,6.8,0,0,0-2.353-7.24L28.706,1.162A6.811,6.811,0,0,0,21.091,1.162ZM9.534,42.8,2.481,21.1a4.575,4.575,0,0,1,1.506-4.647L22.455,3.035a4.569,4.569,0,0,1,4.887,0L45.8,16.452A4.56,4.56,0,0,1,47.309,21.1L40.256,42.8A4.57,4.57,0,0,1,36.3,45.682H13.491A4.567,4.567,0,0,1,9.534,42.8Z" fill="#c6c6c6"/>
        </g>
        <g id="Group_369" data-name="Group 369">
          <path id="Path_167" data-name="Path 167" d="M18.783,26.188H12.876l-.824,2.361H6.731l6.341-14.308H18.76l6.3,14.308H19.622l-.839-2.361ZM17.7,23.1l-1.859-5.142L14,23.1h3.7Z" fill="#fff"/>
          <path id="Path_168" data-name="Path 168" d="M24.374,14.241H38.307v3.05H29.575V19.57h8.087v2.923H29.575v2.818h8.979v3.23H24.374v-14.3Z" fill="#fff"/>
          <path id="Path_169" data-name="Path 169" d="M26.975,35.309l4.564,1.169A6.676,6.676,0,0,1,30.093,39.2a6.168,6.168,0,0,1-2.451,1.649,10.7,10.7,0,0,1-3.725.555,12.391,12.391,0,0,1-4.482-.682,6.776,6.776,0,0,1-3-2.383,7.17,7.17,0,0,1-1.259-4.37A6.827,6.827,0,0,1,17.4,28.5a9.335,9.335,0,0,1,6.281-1.911,9.718,9.718,0,0,1,5,1.094,6.548,6.548,0,0,1,2.7,3.365l-4.579.869a3.181,3.181,0,0,0-.51-.959,2.813,2.813,0,0,0-1.072-.779,3.563,3.563,0,0,0-1.417-.27,3.227,3.227,0,0,0-2.706,1.207,4.539,4.539,0,0,0-.712,2.818,4.745,4.745,0,0,0,.847,3.26,3.138,3.138,0,0,0,2.383.884,3.123,3.123,0,0,0,2.256-.712A4.142,4.142,0,0,0,26.975,35.3Z" fill="#fff"/>
        </g>
      </g>
    </g>
  </g>
</svg>
