<svg id="Layer_1" data-name="Layer 1" xmlns="http://www.w3.org/2000/svg" xmlns:xlink="http://www.w3.org/1999/xlink" width="192.016" height="214.508" viewBox="0 0 192.016 214.508">
  <defs>
    <linearGradient id="linear-gradient" y1="0.5" x2="1" y2="0.5" gradientUnits="objectBoundingBox">
      <stop offset="0" stop-color="#004122"/>
      <stop offset="1" stop-color="#95c11f"/>
    </linearGradient>
  </defs>
  <g id="Group_361" data-name="Group 361" transform="translate(2.965 160.753)">
    <path id="Path_110" data-name="Path 110" d="M9.721,85.1H1.32V81.892a5.349,5.349,0,0,1,.112-.584A4.543,4.543,0,0,1,3.476,78.59c1.1-.539,2.493-.157,3.572-.7a14.779,14.779,0,0,0,1.213-.854v5.526h1.46ZM3.095,74.614a1.158,1.158,0,0,1-1.146-1.1,1.086,1.086,0,0,1,1.146-1.1,1.1,1.1,0,0,1,1.146,1.1A1.113,1.113,0,0,1,3.095,74.614ZM5.3,80.5c-.674,0-1.752.809-1.752,1.37v.674H6.037v-2a3.865,3.865,0,0,0-.719-.045ZM6.8,74.614a1.034,1.034,0,0,1-1.078-1.146A.982.982,0,0,1,6.8,72.39a1.1,1.1,0,0,1,1.146,1.1,1.113,1.113,0,0,1-1.146,1.1Z" transform="translate(-1.32 -70.526)" fill="#646363"/>
    <path id="Path_111" data-name="Path 111" d="M4.8,79.458V76.92H9.18v2.538Z" transform="translate(3.017 -64.88)" fill="#646363"/>
    <path id="Path_112" data-name="Path 112" d="M6.51,79.458V76.92h4.38v2.538Z" transform="translate(5.148 -64.88)" fill="#646363"/>
    <path id="Path_113" data-name="Path 113" d="M8.19,81.689V79.151H14.7c0-2.763,0-2.628,2.224-4.021v4.021H18.5v2.538Zm3.639,5.3a1.15,1.15,0,0,1-1.146-1.146,1.075,1.075,0,0,1,1.123-1.078A1,1,0,0,1,12.93,85.89a1.02,1.02,0,0,1-1.078,1.1Zm3.684,0a1.15,1.15,0,0,1-1.146-1.146,1.038,1.038,0,0,1,1.123-1.078,1,1,0,0,1,1.123,1.123,1.075,1.075,0,0,1-1.1,1.1Z" transform="translate(7.242 -67.111)" fill="#646363"/>
    <path id="Path_114" data-name="Path 114" d="M18.141,81.652H12.48V79.114h4.38c0-3.077,0-2.381,2.224-3.954v5.279c0,.427-.517,1.213-.943,1.213ZM16.636,86.01a.962.962,0,0,1-1.078-1.078,1.081,1.081,0,0,1,1.078-1.146,1.211,1.211,0,0,1,1.146,1.123,1.079,1.079,0,0,1-1.146,1.123Z" transform="translate(12.589 -67.073)" fill="#646363"/>
    <path id="Path_115" data-name="Path 115" d="M20.831,80.879c0,1.887-.157,3.774-2.538,3.774a2.762,2.762,0,0,1-2.763-2.606h2.763c0-5.436-.876-4.268,2.538-6.267v2.538h2.875v2.538H20.831Z" transform="translate(16.39 -66.301)" fill="#646363"/>
    <path id="Path_116" data-name="Path 116" d="M18.86,82.624V80.086h3.864a5.9,5.9,0,0,1-.719-2.2c0-2.741,2.493-2.246,4.335-2.246,1.707,0,1.37-.09,2.336-1.258v3.8h-4l-.18.292c0,.494.764,1.55,1.28,1.595H30.2V82.6H18.882Z" transform="translate(20.541 -68.045)" fill="#646363"/>
    <path id="Path_117" data-name="Path 117" d="M28.213,86.064H23.63V83.526h3.257V73.552c0-.831,1.572-1.527,2.179-1.932l.045,13.388c0,.4-.494,1.033-.9,1.033Z" transform="translate(26.486 -71.485)" fill="#646363"/>
    <path id="Path_118" data-name="Path 118" d="M26.8,86.051V74.168c0-1.37,1.258-1.932,2.291-2.538V86.051Z" transform="translate(30.436 -71.473)" fill="#646363"/>
    <path id="Path_119" data-name="Path 119" d="M33.408,82.562c-.314,0-.629.831-.629,1.1a1.316,1.316,0,0,0,.449,1.056h6.739v1.707c0,.292-.517.943-.831.943H33.655c-1.82,0-3.235-2.022-3.235-3.706,0-2.628,1.64-2.943,3.594-3.706a2.788,2.788,0,0,1-.764-1.887c0-3.886,4.066-1.775,5.93-2.741a8.027,8.027,0,0,0,.786-.9v3.684H36.013l-.225.337c.022,1.168,1.146,1.572,2.426,1.572h3.28v2.538H33.385Z" transform="translate(34.948 -67.983)" fill="#646363"/>
    <path id="Path_120" data-name="Path 120" d="M35.07,79.458V76.92h4.38v2.538Z" transform="translate(40.744 -64.88)" fill="#646363"/>
    <path id="Path_121" data-name="Path 121" d="M36.77,79.458V76.92h4.38v2.538Z" transform="translate(42.862 -64.88)" fill="#646363"/>
    <path id="Path_122" data-name="Path 122" d="M46.242,81.689H38.47V79.151h6.514c0-3.3.135-2.381,2.224-4.021v5.548c0,.314-.607.988-.943.988Zm-4.178,4.223a1.08,1.08,0,0,1-1.1-1.123,1.107,1.107,0,0,1,1.1-1.123,1.028,1.028,0,0,1,1.123,1.123A1.039,1.039,0,0,1,42.064,85.912Zm3.684,0a1.08,1.08,0,0,1-1.1-1.123,1.107,1.107,0,0,1,1.1-1.123,1.123,1.123,0,1,1,0,2.246Z" transform="translate(44.981 -67.111)" fill="#646363"/>
    <path id="Path_123" data-name="Path 123" d="M45.265,84.516c-1.146,0-2.785-.831-2.785-2.112v-.292h2.763V77.889c0-1.146,1.8-1.572,2.561-2.089v6.829c0,1.213-1.438,1.909-2.538,1.909Z" transform="translate(49.979 -66.276)" fill="#646363"/>
    <path id="Path_124" data-name="Path 124" d="M45.57,86.139V71.56c.629.382,2.224,1.123,2.224,1.977V83.6H50.4v2.538Z" transform="translate(53.83 -71.56)" fill="#646363"/>
    <path id="Path_125" data-name="Path 125" d="M47.47,79.458V76.92h2.493v2.538Z" transform="translate(56.198 -64.88)" fill="#646363"/>
    <path id="Path_126" data-name="Path 126" d="M59.861,85.964H48.54V82.123c0-.337,1.864-1.123,2.179-1.3v2.561h1.595c0-2.583-.225-2.651,2.2-3.572v3.572h1.55c0-3.145-.562-3.3,2.246-4.38v4.425h1.55v2.538Zm-8.783-9.255a1.146,1.146,0,0,1-1.168-1.168,1.191,1.191,0,0,1,2.381,0A1.121,1.121,0,0,1,51.078,76.709Zm2.044-2.763a1.17,1.17,0,0,1-1.213-1.168A1.155,1.155,0,0,1,53.123,71.7a1.214,1.214,0,0,1,1.191,1.078A1.165,1.165,0,0,1,53.123,73.946Zm2.022,2.763a1.252,1.252,0,0,1-1.258-1.146,1.214,1.214,0,0,1,1.258-1.191,1.262,1.262,0,0,1,1.213,1.168,1.2,1.2,0,0,1-1.213,1.168Z" transform="translate(57.532 -71.386)" fill="#646363"/>
    <path id="Path_127" data-name="Path 127" d="M64.22,89.314c-2.112,0-2.785-1.393-3.167-3.212H53.28V83.563h3.19a2.857,2.857,0,0,0,.09-.719c0-3.954,4.583-2.808,6.537-4.56l.067,7.772a1.054,1.054,0,0,0,1.056,1.056c.4,0,1.011-.4,1.011-.831V73.971c0-1.213,1.438-1.707,2.224-2.381V86.438a3.2,3.2,0,0,1-3.212,2.853Zm-3.257-7.7a2.306,2.306,0,0,0-.539-.112c-.629,0-1.8.764-1.8,1.438V83.5h2.336Z" transform="translate(63.439 -71.523)" fill="#646363"/>
    <path id="Path_128" data-name="Path 128" d="M60.31,86.051V74.168c0-1.37,1.28-1.932,2.269-2.538V86.051Z" transform="translate(72.201 -71.473)" fill="#646363"/>
    <path id="Path_129" data-name="Path 129" d="M72.221,85.1h-8.4V81.892a5.35,5.35,0,0,1,.112-.584,4.543,4.543,0,0,1,2.044-2.718c1.1-.539,2.493-.157,3.572-.7a14.779,14.779,0,0,0,1.213-.854v5.526h1.483V85.1Zm-6.627-10.49a1.158,1.158,0,0,1-1.146-1.1,1.135,1.135,0,0,1,2.269,0A1.107,1.107,0,0,1,65.595,74.614ZM67.774,80.5c-.674,0-1.752.809-1.752,1.37v.674h2.493v-2a3.868,3.868,0,0,0-.741-.045Zm1.505-5.885A1.034,1.034,0,0,1,68.2,73.468a.982.982,0,0,1,1.078-1.078,1.086,1.086,0,0,1,1.146,1.1,1.113,1.113,0,0,1-1.146,1.1Z" transform="translate(76.575 -70.526)" fill="#646363"/>
    <path id="Path_130" data-name="Path 130" d="M67.3,79.458V76.92h4.38v2.538Z" transform="translate(80.913 -64.88)" fill="#646363"/>
    <path id="Path_131" data-name="Path 131" d="M83.342,84.618H69.01V82.08H81.994l.067-.045v-.27c0-.517-.112-1.752-.921-1.752H70.762a2.076,2.076,0,0,1,.2-1.775c.4-.382,10.266-4.875,11.546-5.459-.921,2.067-4.717,2.561-6.222,4.2v.112c0,1.37,5.3.674,6.2.674,2.179,0,1.8,3.437,1.8,4.807,0,.629,0,2.022-.921,2.022Z" transform="translate(83.044 -70.039)" fill="#646363"/>
    <path id="Path_132" data-name="Path 132" d="M81.294,80.879c0,1.887-.157,3.774-2.561,3.774a2.793,2.793,0,0,1-2.763-2.606h2.763c0-5.436-.854-4.268,2.561-6.267v2.538h2.875v2.538H81.294Z" transform="translate(91.718 -66.301)" fill="#646363"/>
    <path id="Path_133" data-name="Path 133" d="M79.39,79.458V76.92h2.493v2.538Z" transform="translate(95.981 -64.88)" fill="#646363"/>
    <path id="Path_134" data-name="Path 134" d="M89.348,85.864H80.43V82.158c.4-.651,1.483-.966,2.134-1.325v2.493h1.595c0-3.28,0-2.224,2.156-3.527v3.527h1.528c0-3.774-.472-2.92,2.224-4.29v5.93c0,.359-.359.876-.741.876Zm-6.4-9.12a1.146,1.146,0,1,1,.022-2.291,1.147,1.147,0,1,1-.022,2.291Zm2-2.7a1.136,1.136,0,1,1-.022-2.269,1.111,1.111,0,0,1,1.191,1.1A1.146,1.146,0,0,1,84.945,74.049Zm1.954,2.7a1.074,1.074,0,0,1-1.168-1.123,1.121,1.121,0,0,1,1.191-1.146,1.137,1.137,0,1,1,0,2.269Z" transform="translate(97.277 -71.286)" fill="#646363"/>
  </g>
  <g id="Group_364" data-name="Group 364" transform="translate(21.389)">
    <g id="Group_362" data-name="Group 362">
      <path id="Path_135" data-name="Path 135" d="M48.009,138.444c-6.357,0-13.186-4.964-15.163-11.007L11.73,62.384c-1.954-6.065.651-14.084,5.8-17.813L72.853,4.361C78,.61,86.443.61,91.587,4.361l55.327,40.187c5.167,3.751,7.772,11.771,5.8,17.813l-21.138,65.054c-1.954,6.043-8.783,11.007-15.163,11.007h-68.4Z" transform="translate(-7.579 1.934)" fill="url(#linear-gradient)"/>
      <path id="Path_136" data-name="Path 136" d="M72.752,3.485,17.4,43.694c-6.4,4.65-9.48,14.174-7.053,21.7l21.138,65.054c2.448,7.525,10.558,13.411,18.465,13.411h68.4c7.907,0,16.016-5.885,18.442-13.411l21.138-65.054c2.448-7.525-.651-17.05-7.053-21.7L95.575,3.485c-6.4-4.65-16.421-4.65-22.823,0ZM38.113,128.291,16.976,63.237c-1.483-4.583.629-11.1,4.515-13.927L76.84,9.1c3.909-2.83,10.737-2.83,14.646,0L146.813,49.31c3.886,2.83,6.02,9.345,4.515,13.927L130.19,128.291c-1.483,4.583-7.031,8.626-11.861,8.626H49.952c-4.83,0-10.356-4.021-11.861-8.626Z" transform="translate(-9.522 0.002)" fill="#c6c6c6"/>
    </g>
    <g id="Group_363" data-name="Group 363" transform="translate(20.168 42.686)">
      <path id="Path_137" data-name="Path 137" d="M54.621,54.806H36.92l-2.471,7.076H18.5L37.5,19h17.05L73.445,61.882H57.137l-2.516-7.076Zm-3.235-9.255-5.571-15.41-5.526,15.41H51.364Z" transform="translate(-18.5 -19)" fill="#fff"/>
      <path id="Path_138" data-name="Path 138" d="M42.05,19H83.809v9.143H57.64v6.829H81.877v8.761H57.64v8.446H84.551V61.86H42.05V19Z" transform="translate(10.851 -19)" fill="#fff"/>
      <path id="Path_139" data-name="Path 139" d="M65.137,61.6l13.68,3.5a20.008,20.008,0,0,1-4.335,8.154,18.486,18.486,0,0,1-7.345,4.942,32.055,32.055,0,0,1-11.164,1.662q-8.222,0-13.433-2.044a20.309,20.309,0,0,1-8.985-7.143q-3.774-5.122-3.774-13.1,0-10.648,6.649-16.376c4.425-3.819,10.715-5.728,18.824-5.728q9.536,0,14.983,3.28a19.625,19.625,0,0,1,8.087,10.086L64.6,51.451a9.535,9.535,0,0,0-1.528-2.875,8.431,8.431,0,0,0-3.212-2.336,10.678,10.678,0,0,0-4.246-.809A9.671,9.671,0,0,0,47.5,49.048c-1.415,1.8-2.134,4.6-2.134,8.446,0,4.762.854,8.019,2.538,9.772a9.406,9.406,0,0,0,7.143,2.651c3.077,0,5.234-.7,6.761-2.134a12.413,12.413,0,0,0,3.325-6.2Z" transform="translate(-4.441 1.539)" fill="#fff"/>
    </g>
  </g>
  <g id="Group_367" data-name="Group 367" transform="translate(0 185.979)">
    <g id="Group_365" data-name="Group 365">
      <path id="Path_140" data-name="Path 140" d="M11.5,96.67H8.693l-.9-3.459H3.706l-.9,3.459H0L3.864,82.9H7.57ZM5.8,85.259H5.728l-1.46,5.773H7.233Z" transform="translate(0 -82.653)" fill="#646363"/>
      <path id="Path_141" data-name="Path 141" d="M10.859,82.9a4.049,4.049,0,0,1,4.4,4.021,3.768,3.768,0,0,1-2.336,3.459l2.741,6.29h-2.92l-2.471-5.728H8.163V96.67H5.4V82.9h5.436ZM9.376,88.606c1.213,0,3.055.067,3.055-1.64,0-1.909-1.864-1.752-3.235-1.752H8.163v3.392Z" transform="translate(6.73 -82.653)" fill="#646363"/>
      <path id="Path_142" data-name="Path 142" d="M21.519,96.67H18.711l-.9-3.459H13.746l-.9,3.459H10.04L13.9,82.9h3.729l3.931,13.77ZM15.813,85.259h-.067l-1.46,5.773h2.965Z" transform="translate(12.513 -82.653)" fill="#646363"/>
      <path id="Path_143" data-name="Path 143" d="M15.44,96.67V82.9h3.976c4.47,0,5.593,1.55,5.593,3.8a3.078,3.078,0,0,1-1.73,2.853,3.431,3.431,0,0,1,2,3.167c0,2.359-1.932,3.954-4.448,3.954H15.44ZM18.2,88.493c2.044,0,3.976.225,3.976-1.662s-2.022-1.752-3.976-1.752v3.437Zm1.8,6c.831,0,2.448.112,2.448-1.977,0-1.887-1.55-2.134-4.246-1.932v3.909Z" transform="translate(19.243 -82.653)" fill="#646363"/>
      <path id="Path_144" data-name="Path 144" d="M20.46,96.67V82.9h2.763V96.67Z" transform="translate(25.5 -82.653)" fill="#646363"/>
      <path id="Path_145" data-name="Path 145" d="M33.471,96.67H30.663l-.921-3.459H25.676l-.9,3.459H21.97L25.834,82.9h3.729l3.931,13.77ZM27.743,85.259h-.067l-1.438,5.773H29.2l-1.438-5.773Z" transform="translate(27.382 -82.653)" fill="#646363"/>
      <path id="Path_146" data-name="Path 146" d="M31.426,82.9l4.111,9.075h.045V82.9h2.763V96.67H35.379L30.168,85.618h-.045V96.67H27.36V82.9H31.4Z" transform="translate(34.1 -82.653)" fill="#646363"/>
      <path id="Path_147" data-name="Path 147" d="M43.959,85.236H38.141v3.3h4.83v2.336h-4.83v3.459H44.3V96.67H35.4V82.9h8.559v2.336Z" transform="translate(44.12 -82.653)" fill="#646363"/>
      <path id="Path_148" data-name="Path 148" d="M44.083,82.9l4.111,9.075h.022V82.9H50.98V96.67H48.037L42.825,85.618H42.8V96.67H40.04V82.9Z" transform="translate(49.903 -82.653)" fill="#646363"/>
      <path id="Path_149" data-name="Path 149" d="M55.246,85.236H51.675V96.67H48.912V85.236H45.34V82.9h9.906Z" transform="translate(56.508 -82.653)" fill="#646363"/>
      <path id="Path_150" data-name="Path 150" d="M58.709,85.236h-5.8v3.3h4.83v2.336h-4.83v3.459h6.155V96.67H50.15V82.9h8.559v2.336Z" transform="translate(62.503 -82.653)" fill="#646363"/>
      <path id="Path_151" data-name="Path 151" d="M60.226,82.9a4.049,4.049,0,0,1,4.4,4.021,3.734,3.734,0,0,1-2.336,3.459l2.741,6.29h-2.9l-2.471-5.728H57.553V96.67H54.79V82.9h5.436Zm-1.46,5.706c1.213,0,3.033.067,3.033-1.64,0-1.909-1.842-1.752-3.212-1.752H57.553v3.392Z" transform="translate(68.286 -82.653)" fill="#646363"/>
      <path id="Path_152" data-name="Path 152" d="M65.221,82.9a4.264,4.264,0,0,1,4.538,4.335c0,2.089-1.235,4.156-5.234,4.156H62.661V96.67H59.92V82.9h5.3Zm-1.977,6.155c1.505,0,3.684.247,3.684-1.909s-2.179-1.909-3.684-1.909h-.562v3.819Z" transform="translate(74.68 -82.653)" fill="#646363"/>
      <path id="Path_153" data-name="Path 153" d="M70.249,82.9a4.049,4.049,0,0,1,4.4,4.021,3.768,3.768,0,0,1-2.336,3.459l2.741,6.29h-2.9l-2.493-5.728H67.553V96.67H64.79V82.9h5.436Zm-1.483,5.706c1.213,0,3.055.067,3.055-1.64,0-1.909-1.842-1.752-3.212-1.752H67.575v3.392h1.213Z" transform="translate(80.75 -82.653)" fill="#646363"/>
      <path id="Path_154" data-name="Path 154" d="M69.91,96.67V82.9h2.763V96.67Z" transform="translate(87.131 -82.653)" fill="#646363"/>
      <path id="Path_155" data-name="Path 155" d="M78.509,87.08c-.27-.943-.786-1.932-1.909-1.932a1.621,1.621,0,0,0-1.685,1.595c0,2.718,6.469.943,6.469,6.065a4.326,4.326,0,0,1-4.672,4.2c-2.628,0-4.515-1.28-4.942-3.976l2.763-.4c.247,1.168.854,2.022,2.156,2.022A1.749,1.749,0,0,0,78.666,92.9c0-2.763-6.492-1.168-6.492-5.863a4.335,4.335,0,0,1,4.47-4.246,4.128,4.128,0,0,1,4.335,3.841l-2.493.449Z" transform="translate(89.449 -82.79)" fill="#646363"/>
      <path id="Path_156" data-name="Path 156" d="M85.258,85.236h-5.8v3.3H84.27v2.336H79.463v3.459H85.6V96.67H76.7V82.9h8.559v2.336Z" transform="translate(95.593 -82.653)" fill="#646363"/>
      <path id="Path_157" data-name="Path 157" d="M87.939,87.08c-.27-.943-.786-1.932-1.909-1.932a1.621,1.621,0,0,0-1.685,1.595c0,2.718,6.469.943,6.469,6.065a4.326,4.326,0,0,1-4.672,4.2c-2.606,0-4.515-1.28-4.942-3.976l2.763-.4c.247,1.168.854,2.022,2.156,2.022A1.749,1.749,0,0,0,88.1,92.9c0-2.763-6.469-1.168-6.469-5.863A4.335,4.335,0,0,1,86.1,82.79a4.094,4.094,0,0,1,4.313,3.841l-2.493.449Z" transform="translate(101.202 -82.79)" fill="#646363"/>
    </g>
    <g id="Group_366" data-name="Group 366" transform="translate(35.447 21.655)">
      <path id="Path_158" data-name="Path 158" d="M20.3,94.709a1.643,1.643,0,0,0-1.595-1.3,1.762,1.762,0,0,0-.786.18,1.687,1.687,0,0,0-.562.494,2.663,2.663,0,0,0-.359.764,3.416,3.416,0,0,0-.112.988,4.589,4.589,0,0,0,.112.988,2.006,2.006,0,0,0,.359.764,1.758,1.758,0,0,0,.562.517,1.507,1.507,0,0,0,.786.18c.809,0,1.393-.584,1.707-1.775h1.056a3.622,3.622,0,0,1-.988,2,2.4,2.4,0,0,1-.831.539,2.327,2.327,0,0,1-.966.2h-.045a3,3,0,0,1-1.213-.27,2.825,2.825,0,0,1-.9-.719,3.277,3.277,0,0,1-.562-1.078,4.972,4.972,0,0,1-.18-1.325,4.467,4.467,0,0,1,.4-1.954,2.5,2.5,0,0,1,1.325-1.213c.2-.067.382-.112.584-.18a2.4,2.4,0,0,1,.562-.067,2.459,2.459,0,0,1,1.662.584,3.435,3.435,0,0,1,1.011,1.707H20.25Z" transform="translate(-15.78 -92.418)" fill="#646363"/>
      <path id="Path_159" data-name="Path 159" d="M27.412,92.43a3.03,3.03,0,0,1,2.314.988,3.408,3.408,0,0,1,.629,1.078,4.491,4.491,0,0,1,.2,1.37,4.638,4.638,0,0,1-.225,1.393,3.082,3.082,0,0,1-.651,1.078,3.12,3.12,0,0,1-2.269.966,3.3,3.3,0,0,1-1.258-.247,2.764,2.764,0,0,1-.988-.674,3.217,3.217,0,0,1-.651-1.078,3.94,3.94,0,0,1-.225-1.393,4.2,4.2,0,0,1,.2-1.325,3.1,3.1,0,0,1,.584-1.078,3.167,3.167,0,0,1,.966-.741,3.315,3.315,0,0,1,1.37-.27Zm0,.966a2.1,2.1,0,0,0-.876.18,1.793,1.793,0,0,0-.651.494,2.264,2.264,0,0,0-.4.764,3.393,3.393,0,0,0-.135.988,3.5,3.5,0,0,0,.135.988,2.465,2.465,0,0,0,.4.764,2.086,2.086,0,0,0,2.4.517,1.629,1.629,0,0,0,.651-.517,2.07,2.07,0,0,0,.4-.764,3.692,3.692,0,0,0,0-1.977,2.264,2.264,0,0,0-.4-.764,2.006,2.006,0,0,0-.651-.494A2.261,2.261,0,0,0,27.412,93.4Z" transform="translate(-5.174 -92.43)" fill="#646363"/>
      <path id="Path_160" data-name="Path 160" d="M38.294,98.972V94.5l-1.505,4.47H35.8L34.3,94.5v4.47H33.24V92.48h1.348l1.73,5.077,1.707-5.077H39.35v6.492Z" transform="translate(5.981 -92.368)" fill="#646363"/>
      <path id="Path_161" data-name="Path 161" d="M42.25,98.972V92.48h2.92a2.187,2.187,0,0,1,.764.135,1.757,1.757,0,0,1,.584.382,1.573,1.573,0,0,1,.382.629,2.35,2.35,0,0,1,.135.809,2.015,2.015,0,0,1-.135.764,1.52,1.52,0,0,1-.4.584,1.442,1.442,0,0,1-.562.4,1.641,1.641,0,0,1-.674.135H43.306v2.651H42.25Zm1.056-5.526v1.932H45.26a1.023,1.023,0,0,0,.247-.067.98.98,0,0,0,.247-.2,1.211,1.211,0,0,0,.157-.292.931.931,0,0,0,.067-.359v-.09a1.058,1.058,0,0,0-.09-.382.855.855,0,0,0-.2-.292,2.051,2.051,0,0,0-.292-.18,1.929,1.929,0,0,0-.382-.067H43.328Z" transform="translate(17.21 -92.368)" fill="#646363"/>
      <path id="Path_162" data-name="Path 162" d="M54.1,97.107H51.852L51.2,98.972H50.1l2.359-6.492h1.168L55.9,98.972H54.75l-.629-1.864Zm-1.909-.9h1.595L53.02,93.94Z" transform="translate(26.994 -92.368)" fill="#646363"/>
      <path id="Path_163" data-name="Path 163" d="M63.862,98.972h-1.1L59.8,94.255v4.717H58.74V92.48h1.168l2.92,4.74V92.48h1.056v6.492Z" transform="translate(37.762 -92.368)" fill="#646363"/>
      <path id="Path_164" data-name="Path 164" d="M69.5,98.959V96.421L67.03,92.49h1.28l1.73,2.92,1.707-2.92h1.28l-2.448,3.931v2.538H69.523Z" transform="translate(48.094 -92.355)" fill="#646363"/>
    </g>
  </g>
</svg>
