<svg id="Group_503" data-name="Group 503" xmlns="http://www.w3.org/2000/svg" width="25.842" height="25.97" viewBox="0 0 25.842 25.97">
  <path id="Path_177" data-name="Path 177" d="M133.516,6.043c0-1.225,0-2.45,0-3.675A2.176,2.176,0,0,1,135.8.083q3.675-.011,7.35,0a2.17,2.17,0,0,1,2.275,2.293q.009,3.616,0,7.232a2.192,2.192,0,0,1-2.4,2.4c-2.189.007-4.378,0-6.567,0-.313,0-.627.007-.937-.021a2.155,2.155,0,0,1-2-2.157V6.042Z" transform="translate(-119.588 -0.069)" fill="#004122"/>
  <path id="Path_178" data-name="Path 178" d="M11.914,140.326c0,1.212,0,2.424,0,3.635a2.159,2.159,0,0,1-2.3,2.3q-3.655.011-7.31,0A2.164,2.164,0,0,1,0,143.954Q0,140.3,0,136.644a2.175,2.175,0,0,1,2.3-2.3q3.655-.006,7.31,0a2.176,2.176,0,0,1,2.3,2.312c.005,1.225,0,2.449,0,3.675Z" transform="translate(0 -120.323)" fill="#004122"/>
  <path id="Path_179" data-name="Path 179" d="M11.916,5.985c0,1.2,0,2.4,0,3.6a2.163,2.163,0,0,1-2.309,2.327q-3.655,0-7.31,0A2.161,2.161,0,0,1,.006,9.6q0-3.655,0-7.31A2.161,2.161,0,0,1,2.277,0Q5.971-.01,9.665,0a2.152,2.152,0,0,1,2.249,2.232C11.925,3.483,11.916,4.733,11.916,5.985Z" transform="translate(-0.003 0.005)" fill="#004122"/>
  <path id="Path_180" data-name="Path 180" d="M145.414,140.446c0,1.212,0,2.425,0,3.637a2.184,2.184,0,0,1-2.321,2.332q-3.638.009-7.276,0a2.189,2.189,0,0,1-2.315-2.34q0-2.19,0-4.381a5.142,5.142,0,0,1,5.2-5.212q2.191-.009,4.381,0a2.182,2.182,0,0,1,2.326,2.325c.005,1.212,0,2.425,0,3.637Z" transform="translate(-119.574 -120.451)" fill="#004122"/>
</svg>
