<svg xmlns="http://www.w3.org/2000/svg" width="36" height="36" viewBox="0 0 36 36">
  <g id="Group_340" data-name="Group 340" transform="translate(-351 -647)">
    <g id="Rectangle_108" data-name="Rectangle 108" transform="translate(351 647)" fill="none" stroke="#002d6a" stroke-width="2">
      <rect width="36" height="36" rx="18" stroke="none"/>
      <rect x="1" y="1" width="34" height="34" rx="17" fill="none"/>
    </g>
    <path id="gift_1_" data-name="gift (1)" d="M5.5,18.282v2.3h17v-2.3Zm0-10.492H8.625a1.923,1.923,0,0,1-.2-.533,2.562,2.562,0,0,1-.075-.58,2.514,2.514,0,0,1,.825-1.895A2.771,2.771,0,0,1,11.15,4a2.848,2.848,0,0,1,1.425.367A2.922,2.922,0,0,1,13.6,5.3l.425.616.4-.616a3.023,3.023,0,0,1,1.025-.947A2.687,2.687,0,0,1,16.8,4a2.858,2.858,0,0,1,2.025.77,2.5,2.5,0,0,1,.825,1.907,2.227,2.227,0,0,1-.062.521,5.038,5.038,0,0,1-.187.592h3.1a1.479,1.479,0,0,1,1.05.426,1.33,1.33,0,0,1,.45.995V20.579a1.33,1.33,0,0,1-.45.995A1.479,1.479,0,0,1,22.5,22H5.5a1.479,1.479,0,0,1-1.05-.426A1.33,1.33,0,0,1,4,20.579V9.211a1.33,1.33,0,0,1,.45-.995A1.479,1.479,0,0,1,5.5,7.789Zm0,7.958h17V9.211H16.275l2.5,3.292-1.2.853L14,8.666l-3.575,4.689-1.2-.853,2.5-3.292H5.5Zm5.675-7.816a1.314,1.314,0,0,0,.938-.367,1.212,1.212,0,0,0,0-1.776,1.381,1.381,0,0,0-1.875,0,1.212,1.212,0,0,0,0,1.776A1.314,1.314,0,0,0,11.175,7.932Zm5.625,0a1.345,1.345,0,0,0,.963-.367,1.212,1.212,0,0,0,0-1.776,1.345,1.345,0,0,0-.963-.367,1.283,1.283,0,0,0-.912.367,1.212,1.212,0,0,0,0,1.776A1.283,1.283,0,0,0,16.8,7.932Z" transform="translate(355 652)" fill="#0d2d6e"/>
  </g>
</svg>
