<svg xmlns="http://www.w3.org/2000/svg" width="166.043" height="91.37" viewBox="0 0 166.043 91.37">
  <g id="ic_crown_gold" transform="translate(0.518 0.863)">
    <g id="Layer_1" data-name="Layer 1" transform="translate(0.003 0)">
      <path id="Path_108" data-name="Path 108" d="M51.574,72.343h61.867v-2.66H51.574ZM40.8,42.262a3.063,3.063,0,0,0,1.432-.366c4.471,8.6,7.2,14.646,9.328,25.7h61.882c2.128-11.042,4.857-17.1,9.328-25.7a3.039,3.039,0,1,0-.736-.5,96.743,96.743,0,0,1-15.251,12.749,88.746,88.746,0,0,1-2.048-27.174c.085,0,.165.025.25.025a3.108,3.108,0,1,0-1.232-.256,97.573,97.573,0,0,1-12.688,20.84,94.3,94.3,0,0,1-8.267-31.2,3.1,3.1,0,1,0-.6,0,94.182,94.182,0,0,1-8.267,31.2,97.774,97.774,0,0,1-12.688-20.84,3.1,3.1,0,1,0-1.227.256.8.8,0,0,0,.245-.025,88.591,88.591,0,0,1-2.048,27.174A99.208,99.208,0,0,1,42.967,41.374a3.1,3.1,0,1,0-2.168.888Zm111.317-1.1c-3.109,2.424-7.566,9.035-7.205,9.933.325.8,6.229.813,9.589-1.506a18.1,18.1,0,0,0,6.945-10.646C158.51,37.966,155.22,38.714,152.116,41.158Zm-2.073-15.645c2.624-2.61,4.356-6.856,4.151-11.941A22.818,22.818,0,0,0,148.821,0c-1.727,2.961-2.5,7.163-2.228,12.046a33.664,33.664,0,0,0,3.45,13.442Zm-.1,10.039c.536.939,6.74.3,9.809-2.605s6.039-11.213,5.062-12.468c-.751-.969-6.579.417-9.338,3.383s-6.169,10.54-5.533,11.64ZM142.2,49.962c.941-.386,1.893-8.257.5-12.046a11.269,11.269,0,0,0-7.01-7.127,24.562,24.562,0,0,0,.5,11.745C137.335,46.253,141.4,50.3,142.2,49.962ZM147.074,34.6c.756-.442.3-9.286-2-13.3s-8.387-7.559-8.948-7.1c-.391.346,1.072,8.829,3.074,12.794s7.145,8.036,7.9,7.6ZM131.867,46.735a20.794,20.794,0,0,0-1.657,10.395c.431,3.368,3.465,7.218,4.336,6.992,1.092-.281,3.164-7.057,2.544-10.51A8.842,8.842,0,0,0,131.867,46.735ZM124.231,76.67c1.222-.136,4.146-5.757,4.191-8.779a6.792,6.792,0,0,0-3.56-6.39,18.381,18.381,0,0,0-3.4,8.809c-.2,2.916,1.9,6.485,2.774,6.359Zm-1.287,7.775c-3.325.768-9.488,3.975-9.513,4.271,0,.376,4.291,1.757,7.741,1.114s9.6-4.317,9.574-4.728-4.476-1.42-7.8-.658Zm12.683-12.518c-3.375,1.3-9.193,5.687-9.143,6.174s4.977,1.546,8.512.361a19.42,19.42,0,0,0,9.143-6.721c-2.153-1.149-5.142-1.114-8.512.186Zm9.794-14.606c-3.3,1.862-8.562,7.4-8.387,8.086s5.628,1.23,9.138-.5a18.622,18.622,0,0,0,8.282-8.724c-2.544-1.089-5.743-.718-9.033,1.139ZM3.561,38.9a18.1,18.1,0,0,0,6.955,10.646c3.375,2.334,9.263,2.319,9.589,1.506.35-.858-4.081-7.494-7.215-9.893S6.511,37.966,3.561,38.9ZM18.412,12.046c.26-4.9-.5-9.1-2.228-12.046a22.793,22.793,0,0,0-5.378,13.552,15.862,15.862,0,0,0,4.151,11.941,33.75,33.75,0,0,0,3.455-13.447Zm-8.9,11.815C6.766,20.9.943,19.51.192,20.479c-.976,1.255,2,9.537,5.057,12.418s9.273,3.544,9.814,2.605C15.694,34.4,12.284,26.823,9.515,23.862ZM28.832,42.538a24.436,24.436,0,0,0,.5-11.745,11.2,11.2,0,0,0-7.01,7.127c-1.382,3.79-.446,11.655.5,12.046C23.61,50.3,27.665,46.253,28.832,42.538ZM25.828,27c2-3.965,3.455-12.443,3.029-12.794-.561-.462-6.664,3.082-8.948,7.1s-2.739,12.854-2,13.3,5.908-3.634,7.906-7.6Zm2.1,26.6c-.621,3.453,1.452,10.229,2.549,10.51.871.226,3.9-3.639,4.331-6.992A20.815,20.815,0,0,0,33.153,46.73a8.877,8.877,0,0,0-5.242,6.881Zm15.637,16.7a18.412,18.412,0,0,0-3.4-8.809,6.8,6.8,0,0,0-3.56,6.39c.045,3.022,2.974,8.643,4.2,8.779C41.65,76.8,43.743,73.226,43.563,70.31ZM34.245,85.1c-.03.412,6.134,4.081,9.578,4.728s7.751-.738,7.751-1.114c0-.3-6.179-3.513-9.513-4.271S34.275,84.665,34.245,85.1ZM20.866,71.741a19.435,19.435,0,0,0,9.148,6.721c3.5,1.185,8.447.151,8.512-.361s-5.768-4.874-9.138-6.174S23.034,70.591,20.866,71.741Zm-10.32-15.56A18.657,18.657,0,0,0,18.833,64.9c3.5,1.752,8.973,1.175,9.133.5s-5.077-6.224-8.387-8.086-6.484-2.229-9.033-1.159Z" transform="translate(-0.003 0)" fill="#f3b562" stroke="#002d6a" stroke-width="1"/>
    </g>
  </g>
</svg>
