<svg xmlns="http://www.w3.org/2000/svg" width="36" height="36" viewBox="0 0 36 36">
  <g id="Group_179" data-name="Group 179" transform="translate(-350 -468)">
    <g id="Rectangle_107" data-name="Rectangle 107" transform="translate(350 468)" fill="none" stroke="#002d6a" stroke-width="2">
      <rect width="36" height="36" rx="18" stroke="none"/>
      <rect x="1" y="1" width="34" height="34" rx="17" fill="none"/>
    </g>
    <path id="ic_grid_on_24px" d="M20,2H4A2.006,2.006,0,0,0,2,4V20a2.006,2.006,0,0,0,2,2H20a2.006,2.006,0,0,0,2-2V4A2.006,2.006,0,0,0,20,2ZM8,20H4V16H8Zm0-6H4V10H8ZM8,8H4V4H8Zm6,12H10V16h4Zm0-6H10V10h4Zm0-6H10V4h4Zm6,12H16V16h4Zm0-6H16V10h4Zm0-6H16V4h4Z" transform="translate(356 474)" fill="#002d6a"/>
  </g>
</svg>
