<svg xmlns="http://www.w3.org/2000/svg" width="26" height="26" viewBox="0 0 26 26">
  <path id="ic_notifications" d="M9.267,4.607,7.4,2.7A14,14,0,0,0,2.03,13.167H4.638A11.324,11.324,0,0,1,9.267,4.607Zm16.155,8.56H28.03A14.08,14.08,0,0,0,22.658,2.7L20.806,4.607A11.391,11.391,0,0,1,25.422,13.167Zm-2.569.667c0-4.093-2.138-7.52-5.868-8.427V4.5a1.956,1.956,0,1,0-3.912,0v.907c-3.742.907-5.868,4.32-5.868,8.427V20.5L4.6,23.167V24.5H25.461V23.167L22.853,20.5ZM15.03,28.5a2.236,2.236,0,0,0,.522-.053,2.66,2.66,0,0,0,1.878-1.573,2.73,2.73,0,0,0,.2-1.04H12.409A2.657,2.657,0,0,0,15.03,28.5Z" transform="translate(-2.03 -2.5)" fill="#002d6a"/>
</svg>
