<svg xmlns="http://www.w3.org/2000/svg" width="36" height="36" viewBox="0 0 36 36">
  <g id="Group_324" data-name="Group 324" transform="translate(-350 -308)">
    <g id="Group_176" data-name="Group 176">
      <g id="Path_97" data-name="Path 97" transform="translate(350 308)" fill="none">
        <path d="M18,0A18,18,0,0,1,36,18a18.4,18.4,0,0,1-1.156,6.359A18,18,0,1,1,18,0Z" stroke="none"/>
        <path d="M 18 2 C 13.72624015808105 2 9.708290100097656 3.664291381835938 6.686290740966797 6.686290740966797 C 3.664291381835938 9.708290100097656 2 13.72624015808105 2 18 C 2 22.27375984191895 3.664291381835938 26.29170989990234 6.686290740966797 29.3137092590332 C 9.708290100097656 32.33570861816406 13.72624015808105 34 18 34 C 21.35445022583008 34 24.57205009460449 32.97821044921875 27.30496025085449 31.04508972167969 C 29.91725921630859 29.19726943969727 31.92593955993652 26.58395957946777 32.96203994750977 23.68354034423828 C 33.67018127441406 21.71115112304688 34 19.90517044067383 34 18 C 34 13.72624015808105 32.33570861816406 9.708290100097656 29.3137092590332 6.686290740966797 C 26.29170989990234 3.664291381835938 22.27375984191895 2 18 2 M 18 0 C 27.94112968444824 0 36 8.058870315551758 36 18 C 36 20.12739944458008 35.63093948364258 22.16860008239746 34.84439849853516 24.35935974121094 C 32.464599609375 31.02125930786133 25.813720703125 36 18 36 C 8.058870315551758 36 0 27.94112968444824 0 18 C 0 8.058870315551758 8.058870315551758 0 18 0 Z" stroke="none" fill="#002d6a"/>
      </g>
      <g id="Path_98" data-name="Path 98" transform="translate(350 308)" fill="none">
        <path d="M18,0A18,18,0,0,1,36,18a18.4,18.4,0,0,1-1.156,6.359A18,18,0,1,1,18,0Z" stroke="none"/>
        <path d="M 18 2 C 13.72624015808105 2 9.708290100097656 3.664291381835938 6.686290740966797 6.686290740966797 C 3.664291381835938 9.708290100097656 2 13.72624015808105 2 18 C 2 22.27375984191895 3.664291381835938 26.29170989990234 6.686290740966797 29.3137092590332 C 9.708290100097656 32.33570861816406 13.72624015808105 34 18 34 C 21.35445022583008 34 24.57205009460449 32.97821044921875 27.30496025085449 31.04508972167969 C 29.91725921630859 29.19726943969727 31.92593955993652 26.58395957946777 32.96203994750977 23.68354034423828 C 33.67018127441406 21.71115112304688 34 19.90517044067383 34 18 C 34 13.72624015808105 32.33570861816406 9.708290100097656 29.3137092590332 6.686290740966797 C 26.29170989990234 3.664291381835938 22.27375984191895 2 18 2 M 18 0 C 27.94112968444824 0 36 8.058870315551758 36 18 C 36 20.12739944458008 35.63093948364258 22.16860008239746 34.84439849853516 24.35935974121094 C 32.464599609375 31.02125930786133 25.813720703125 36 18 36 C 8.058870315551758 36 0 27.94112968444824 0 18 C 0 8.058870315551758 8.058870315551758 0 18 0 Z" stroke="none" fill="#002d6a"/>
      </g>
    </g>
    <path id="edit_password" d="M3.192,28.283V26.466H27.031v1.818Zm1.132-7.569-1.192-.656,1.192-2.026H2V16.692H4.324L3.132,14.665l1.192-.656,1.132,2,1.132-2,1.192.656L6.589,16.692H8.913v1.341H6.589l1.192,2.026-1.192.656-1.132-2Zm9.655,0L12.787,20l1.192-2.026H11.655V16.632h2.324l-1.192-2.026,1.192-.656,1.132,2,1.132-2,1.192.656-1.192,2.026h2.324v1.341H16.244L17.436,20l-1.192.715-1.132-2Zm9.655,0L22.442,20l1.192-2.026H21.31V16.632h2.324l-1.192-2.026,1.192-.656,1.132,2,1.132-2,1.192.656L25.9,16.632h2.324v1.341H25.9L27.091,20l-1.192.715-1.132-2Z" transform="translate(353 305.05)" fill="#002d6a"/>
  </g>
</svg>
