<svg xmlns="http://www.w3.org/2000/svg" width="166.042" height="90.364" viewBox="0 0 166.042 90.364">
  <g id="ic_crown_platini" transform="translate(0.518 0.857)">
    <g id="Layer_1" data-name="Layer 1" transform="translate(0.003 0)">
      <path id="Path_109" data-name="Path 109" d="M51.574,71.539h61.867V68.908H51.574ZM40.8,41.793a3.091,3.091,0,0,0,1.432-.362c4.471,8.507,7.2,14.484,9.328,25.418h61.882c2.128-10.92,4.857-16.911,9.328-25.418a3.043,3.043,0,0,0,3.941-1.2,2.987,2.987,0,0,0-.92-3.984,3.047,3.047,0,0,0-4.076.616,2.984,2.984,0,0,0,.319,4.075,96.5,96.5,0,0,1-15.251,12.607,86.813,86.813,0,0,1-2.048-26.872c.085,0,.165.025.25.025a3.09,3.09,0,1,0-1.232-.253A96.3,96.3,0,0,1,91.065,47.049,92.439,92.439,0,0,1,82.8,16.191a3.1,3.1,0,1,0-.6,0,92.321,92.321,0,0,1-8.267,30.858A96.5,96.5,0,0,1,61.248,26.441a3.064,3.064,0,0,0,1.723-3.748,3.1,3.1,0,1,0-2.949,4,.809.809,0,0,0,.245-.025,86.661,86.661,0,0,1-2.048,26.872A98.959,98.959,0,0,1,42.967,40.914a3.053,3.053,0,0,0,.42-3.882,3.114,3.114,0,0,0-3.762-1.156A3.069,3.069,0,0,0,40.8,41.793ZM152.116,40.7c-3.109,2.4-7.566,8.934-7.205,9.823.325.789,6.229.8,9.589-1.489a17.891,17.891,0,0,0,6.945-10.528C158.51,37.544,155.22,38.284,152.116,40.7ZM150.043,25.23a15.564,15.564,0,0,0,4.151-11.808A22.426,22.426,0,0,0,148.821,0c-1.727,2.928-2.5,7.083-2.228,11.912a33,33,0,0,0,3.45,13.292Zm-.1,9.927c.536.928,6.74.3,9.809-2.576s6.039-11.088,5.062-12.329c-.751-.958-6.579.412-9.338,3.345s-6.169,10.423-5.533,11.51ZM142.2,49.407c.941-.382,1.893-8.165.5-11.912a11.207,11.207,0,0,0-7.01-7.048,24.028,24.028,0,0,0,.5,11.615C137.335,45.739,141.4,49.744,142.2,49.407Zm4.872-15.188c.756-.437.3-9.182-2-13.148s-8.387-7.475-8.948-7.018c-.391.342,1.072,8.731,3.074,12.652s7.145,7.947,7.9,7.515Zm-15.206,12a20.359,20.359,0,0,0-1.657,10.279c.431,3.331,3.465,7.138,4.336,6.914,1.092-.278,3.164-6.979,2.544-10.394A8.76,8.76,0,0,0,131.867,46.215Zm-7.636,29.6c1.222-.134,4.146-5.693,4.191-8.681a6.7,6.7,0,0,0-3.56-6.319,18.057,18.057,0,0,0-3.4,8.711c-.2,2.884,1.9,6.413,2.774,6.289Zm-1.287,7.688c-3.325.759-9.488,3.931-9.513,4.224,0,.372,4.291,1.737,7.741,1.1s9.6-4.269,9.574-4.676-4.476-1.4-7.8-.65Zm12.683-12.379c-3.375,1.286-9.193,5.624-9.143,6.105s4.977,1.529,8.512.357a19.408,19.408,0,0,0,9.143-6.646c-2.153-1.137-5.142-1.1-8.512.184Zm9.794-14.444c-3.3,1.841-8.562,7.316-8.387,8s5.628,1.216,9.138-.5a18.5,18.5,0,0,0,8.282-8.627c-2.544-1.077-5.743-.71-9.033,1.127ZM3.561,38.467a17.882,17.882,0,0,0,6.955,10.528c3.375,2.308,9.263,2.293,9.589,1.489.35-.849-4.081-7.411-7.215-9.783S6.511,37.544,3.561,38.467ZM18.412,11.912c.26-4.844-.5-9-2.228-11.912a22.4,22.4,0,0,0-5.378,13.4A15.583,15.583,0,0,0,14.958,25.21a33.08,33.08,0,0,0,3.455-13.3ZM9.515,23.6C6.766,20.663.943,19.293.192,20.251c-.976,1.241,2,9.431,5.057,12.28s9.273,3.5,9.814,2.576C15.694,34.02,12.284,26.525,9.515,23.6ZM28.832,42.066a23.905,23.905,0,0,0,.5-11.615,11.141,11.141,0,0,0-7.01,7.048c-1.382,3.747-.446,11.525.5,11.912C23.61,49.744,27.665,45.739,28.832,42.066Zm-3-15.362c2-3.921,3.455-12.3,3.029-12.652C28.3,13.6,22.193,17.1,19.91,21.07s-2.739,12.712-2,13.148,5.908-3.594,7.906-7.515Zm2.1,26.307C27.3,56.425,29.378,63.126,30.474,63.4c.871.223,3.9-3.6,4.331-6.914A20.379,20.379,0,0,0,33.153,46.21a8.8,8.8,0,0,0-5.242,6.8ZM43.563,69.529a18.088,18.088,0,0,0-3.4-8.711,6.712,6.712,0,0,0-3.56,6.319c.045,2.988,2.974,8.547,4.2,8.681C41.65,75.942,43.743,72.413,43.563,69.529ZM34.245,84.156c-.03.407,6.134,4.035,9.578,4.676s7.751-.73,7.751-1.1c0-.293-6.179-3.474-9.513-4.224S34.275,83.725,34.245,84.156ZM20.866,70.943a19.423,19.423,0,0,0,9.148,6.646c3.5,1.171,8.447.149,8.512-.357s-5.768-4.82-9.138-6.105S23.034,69.807,20.866,70.943ZM10.546,55.557a18.54,18.54,0,0,0,8.287,8.627c3.5,1.732,8.973,1.161,9.133.5s-5.077-6.155-8.387-8-6.484-2.2-9.033-1.147Z" transform="translate(-0.003 0)" fill="#e5e4e2" stroke="#002d6a" stroke-width="1"/>
    </g>
  </g>
</svg>
