<svg xmlns="http://www.w3.org/2000/svg" xmlns:xlink="http://www.w3.org/1999/xlink" width="36" height="36" viewBox="0 0 36 36">
  <defs>
    <clipPath id="clip-path">
      <path id="Path_90" data-name="Path 90" d="M1.621,0H24.379A1.5,1.5,0,0,1,26,1.351v23.3A1.5,1.5,0,0,1,24.379,26H1.621A1.5,1.5,0,0,1,0,24.649V1.351A1.5,1.5,0,0,1,1.621,0Z" transform="translate(14 207)" fill="#f2f5f6" stroke="#f2f5f6" stroke-width="1"/>
    </clipPath>
  </defs>
  <g id="Group_176" data-name="Group 176" transform="translate(-350 -308)">
    <g id="Mask_Group_1" data-name="Mask Group 1" transform="translate(341 106)" clip-path="url(#clip-path)">
      <g id="Layer_2" data-name="Layer 2" transform="translate(-14.524 210.153)">
        <g id="Layer_1" data-name="Layer 1" transform="translate(0 0)">
          <path id="ic_star_half_24px" data-name="ic star half 24px" d="M51.791,6.521l-7.768-.558L40.987,0,37.929,5.972l-7.768.549,5.921,4.287L34.31,17.114l6.677-3.36,6.666,3.36-1.761-6.305Zm-10.8,5.548V3.693l1.848,3.6,4.732.342-3.587,2.63,1.08,3.855Z" transform="translate(0.688 0.051)" fill="#002d6a"/>
          <path id="Path_92" data-name="Path 92" d="M20.6,28.09c1.45.126,2.663.688,2.709,1.254s-1.092.923-2.542.8-2.663-.688-2.709-1.254S19.148,27.964,20.6,28.09Z" transform="translate(12.49 3.355) rotate(-55.993)" fill="#002d6a"/>
          <path id="Path_93" data-name="Path 93" d="M27.744,19.95C28.3,20,28.863,21.226,29,22.693s-.214,2.616-.773,2.568-1.119-1.276-1.251-2.742S27.185,19.9,27.744,19.95Z" transform="translate(0 1.457) rotate(-38.03)" fill="#002d6a"/>
          <path id="Path_94" data-name="Path 94" d="M14.469,5.282c1.6.088,2.928.571,2.96,1.08s-1.242.851-2.845.763-2.928-.571-2.96-1.08S12.866,5.194,14.469,5.282Z" transform="matrix(0.94, -0.343, 0.343, 0.94, 15.902, 10.69)" fill="#002d6a"/>
          <path id="Path_95" data-name="Path 95" d="M3.377.113c.6,0,1.088,1.112,1.1,2.475S4.008,5.054,3.412,5.051s-1.088-1.112-1.1-2.475S2.78.11,3.377.113Z" transform="translate(37.72 15.438) rotate(-2.03)" fill="#002d6a"/>
          <path id="Path_96" data-name="Path 96" d="M4.14,8.78c.5.026.973,1.356,1.045,2.971s-.279,2.9-.784,2.876-.973-1.356-1.045-2.971S3.635,8.753,4.14,8.78Z" transform="translate(38.955 13.191) rotate(-74.03)" fill="#002d6a"/>
        </g>
      </g>
    </g>
    <g id="Path_98" data-name="Path 98" transform="translate(350 308)" fill="none">
      <path d="M18,0A18,18,0,0,1,36,18a18.4,18.4,0,0,1-1.156,6.359A18,18,0,1,1,18,0Z" stroke="none"/>
      <path d="M 18 2 C 13.72624015808105 2 9.708290100097656 3.664291381835938 6.686290740966797 6.686290740966797 C 3.664291381835938 9.708290100097656 2 13.72624015808105 2 18 C 2 22.27375984191895 3.664291381835938 26.29170989990234 6.686290740966797 29.3137092590332 C 9.708290100097656 32.33570861816406 13.72624015808105 34 18 34 C 21.35445022583008 34 24.57205009460449 32.97821044921875 27.30496025085449 31.04508972167969 C 29.91725921630859 29.19726943969727 31.92593955993652 26.58395957946777 32.96203994750977 23.68354034423828 C 33.67018127441406 21.71115112304688 34 19.90517044067383 34 18 C 34 13.72624015808105 32.33570861816406 9.708290100097656 29.3137092590332 6.686290740966797 C 26.29170989990234 3.664291381835938 22.27375984191895 2 18 2 M 18 0 C 27.94112968444824 0 36 8.058870315551758 36 18 C 36 20.12739944458008 35.63093948364258 22.16860008239746 34.84439849853516 24.35935974121094 C 32.464599609375 31.02125930786133 25.813720703125 36 18 36 C 8.058870315551758 36 0 27.94112968444824 0 18 C 0 8.058870315551758 8.058870315551758 0 18 0 Z" stroke="none" fill="#002d6a"/>
    </g>
  </g>
</svg>
