<svg xmlns="http://www.w3.org/2000/svg" xmlns:xlink="http://www.w3.org/1999/xlink" width="36" height="36" viewBox="0 0 36 36">
  <defs>
    <clipPath id="clip-path">
      <rect width="36" height="36" fill="none"/>
    </clipPath>
  </defs>
  <g id="Repeat_Grid_1" data-name="Repeat Grid 1" clip-path="url(#clip-path)">
    <g id="Group_177" data-name="Group 177" transform="translate(-350 -388)">
      <g id="Layer_2" data-name="Layer 2" transform="translate(358.17 395.47)">
        <g id="Layer_1" data-name="Layer 1">
          <path id="Path_99" data-name="Path 99" d="M7.561,18.41,5.244,15.62,2,19.791H14.975L10.8,14.23Z" transform="translate(-0.146 -1.042)" fill="none"/>
          <path id="Path_100" data-name="Path 100" d="M15.635,12.552A6.154,6.154,0,0,1,9.611,5.23H1.854A1.854,1.854,0,0,0,0,7.084V20.059a1.854,1.854,0,0,0,1.854,1.854H14.829a1.854,1.854,0,0,0,1.854-1.854V12.431a5.561,5.561,0,0,1-1.047.12ZM1.854,19.132,5.1,14.961l2.317,2.78,3.244-4.18,4.171,5.561Z" transform="translate(0 -0.383)" fill="#002d6a"/>
          <path id="Path_101" data-name="Path 101" d="M16.931,0a5.561,5.561,0,1,0,5.561,5.561A5.561,5.561,0,0,0,16.931,0Zm2.224,7.016a2.03,2.03,0,0,1-.25,1.057,1.529,1.529,0,0,1-.741.639,2.938,2.938,0,0,1-.7.167v.769h-.88V8.9a3.578,3.578,0,0,1-.454-.083A3.012,3.012,0,0,1,15.4,8.5a3.133,3.133,0,0,1-.667-.528l.621-.751a2.141,2.141,0,0,0,.723.584,1.789,1.789,0,0,0,.862.2,1.529,1.529,0,0,0,.927-.25.927.927,0,0,0,.315-.769h0a.806.806,0,0,0-.139-.5.927.927,0,0,0-.4-.287,4.3,4.3,0,0,0-.63-.167h-.139a5.969,5.969,0,0,1-.982-.25,1.409,1.409,0,0,1-.649-.51,1.77,1.77,0,0,1-.26-1.047h0a2.206,2.206,0,0,1,.241-1.1,1.538,1.538,0,0,1,.714-.658,2.716,2.716,0,0,1,.649-.213V1.474h.927v.76h.3a3.893,3.893,0,0,1,.612.195,4.875,4.875,0,0,1,.6.334l-.556.769a2.641,2.641,0,0,0-.658-.343,1.854,1.854,0,0,0-.63-.111,1.39,1.39,0,0,0-.927.25.927.927,0,0,0-.3.741h0a.751.751,0,0,0,.176.538,1.038,1.038,0,0,0,.426.278c.176.065.417.12.714.195h.167a3.707,3.707,0,0,1,.927.287,1.39,1.39,0,0,1,.6.538,1.918,1.918,0,0,1,.241,1.029Z" transform="translate(-0.832)" fill="#002d6a"/>
        </g>
      </g>
      <g id="Path_98" data-name="Path 98" transform="translate(350 388)" fill="none">
        <path d="M18,0A18,18,0,0,1,36,18a18.4,18.4,0,0,1-1.156,6.359A18,18,0,1,1,18,0Z" stroke="none"/>
        <path d="M 18 2 C 13.72624015808105 2 9.708290100097656 3.664291381835938 6.686290740966797 6.686290740966797 C 3.664291381835938 9.708290100097656 2 13.72624015808105 2 18 C 2 22.27375984191895 3.664291381835938 26.29170989990234 6.686290740966797 29.3137092590332 C 9.708290100097656 32.33570861816406 13.72624015808105 34 18 34 C 21.35445022583008 34 24.57205009460449 32.97821044921875 27.30496025085449 31.04508972167969 C 29.91725921630859 29.19726943969727 31.92593955993652 26.58395957946777 32.96203994750977 23.68354034423828 C 33.67018127441406 21.71115112304688 34 19.90517044067383 34 18 C 34 13.72624015808105 32.33570861816406 9.708290100097656 29.3137092590332 6.686290740966797 C 26.29170989990234 3.664291381835938 22.27375984191895 2 18 2 M 18 0 C 27.94112968444824 0 36 8.058870315551758 36 18 C 36 20.12739944458008 35.63093948364258 22.16860008239746 34.84439849853516 24.35935974121094 C 32.464599609375 31.02125930786133 25.813720703125 36 18 36 C 8.058870315551758 36 0 27.94112968444824 0 18 C 0 8.058870315551758 8.058870315551758 0 18 0 Z" stroke="none" fill="#002d6a"/>
      </g>
    </g>
  </g>
</svg>
