<svg id="Layer_1" data-name="Layer 1" xmlns="http://www.w3.org/2000/svg" width="233" height="233" viewBox="0 0 233 233">
  <path id="Path_4" data-name="Path 4" d="M188,12h6.43A26.6,26.6,0,0,1,221,38.57V45h12V38.57A38.61,38.61,0,0,0,194.43,0H188Z" fill="#002d6a"/>
  <path id="Path_5" data-name="Path 5" d="M12,45V38.57A26.6,26.6,0,0,1,38.57,12H45V0H38.57A38.61,38.61,0,0,0,0,38.57V45Z" fill="#002d6a"/>
  <path id="Path_6" data-name="Path 6" d="M221,188v6.43A26.6,26.6,0,0,1,194.43,221H188v12h6.43A38.61,38.61,0,0,0,233,194.43V188Z" fill="#002d6a"/>
  <path id="Path_7" data-name="Path 7" d="M45,221H38.57A26.6,26.6,0,0,1,12,194.43V188H0v6.43A38.61,38.61,0,0,0,38.57,233H45Z" fill="#002d6a"/>
</svg>
