<svg id="Layer_1" data-name="Layer 1" xmlns="http://www.w3.org/2000/svg" width="26" height="26" viewBox="0 0 26 26">
  <path id="ic_center_bill_photo" d="M2.89,17.33H0v5.78A2.91,2.91,0,0,0,2.89,26H8.67V23.11H2.89Zm0-14.44H8.67V0H2.89A2.91,2.91,0,0,0,0,2.89V8.67H2.89ZM23.11,0H17.33V2.89h5.78V8.67H26V2.89A2.91,2.91,0,0,0,23.11,0Zm0,23.11H17.33V26h5.78A2.91,2.91,0,0,0,26,23.11V17.33H23.11Z" fill="#0d2d6e"/>
  <path id="Path_106" data-name="Path 106" d="M6.34,21.77a2.21,2.21,0,0,1-1.63-.67A2.25,2.25,0,0,1,4,19.47V16.73H6.83V4.23L8.14,5.55,9.46,4.23l1.29,1.32,1.32-1.32,1.31,1.32L14.7,4.23,16,5.55l1.32-1.32,1.31,1.32L20,4.23V19.47a2.25,2.25,0,0,1-.67,1.63,2.21,2.21,0,0,1-1.63.67Zm11.2-1.32a.929.929,0,0,0,.98-1V6.23H8.14V16.68h8.43v2.77a1,1,0,0,0,.27.73.94.94,0,0,0,.7.27ZM9.3,9.89V8.57h5.26V9.89Zm0,2.93V11.51h5.26v1.31Zm7.3-2.93a.65.65,0,0,1-.46-.2A.63.63,0,0,1,16,9.23a.62.62,0,0,1,.19-.46.65.65,0,0,1,.46-.2.63.63,0,0,1,.46.2.59.59,0,0,1,.2.46.61.61,0,0,1-.2.46A.63.63,0,0,1,16.6,9.89Zm0,2.83a.65.65,0,0,1-.46-.2.63.63,0,0,1-.19-.46.62.62,0,0,1,.19-.46.65.65,0,0,1,.46-.2.63.63,0,0,1,.46.2.59.59,0,0,1,.2.46.61.61,0,0,1-.2.46.63.63,0,0,1-.46.2ZM6.32,20.45h9V18h-10v1.43a1,1,0,0,0,.27.71.93.93,0,0,0,.73.31Zm-1,0Z" fill="#002d6a"/>
</svg>
